<mxfile host="app.diagrams.net" agent="Mozilla/5.0 (Windows NT 10.0; Win64; x64) AppleWebKit/537.36 (KHTML, like Gecko) Chrome/128.0.0.0 Safari/537.36 OPR/114.0.0.0" version="25.0.3">
  <diagram name="Page-1" id="bSidFh80AV8RMqSfuc8n">
    <mxGraphModel dx="1385" dy="768" grid="1" gridSize="10" guides="1" tooltips="1" connect="1" arrows="1" fold="1" page="1" pageScale="1" pageWidth="1200" pageHeight="1920" math="0" shadow="0">
      <root>
        <mxCell id="0" />
        <mxCell id="1" parent="0" />
        <mxCell id="1xRq_wUFRSwS9prj0Ssz-8" value="BATTERY" style="rounded=1;whiteSpace=wrap;html=1;fillColor=#e1d5e7;strokeColor=#9673a6;" vertex="1" parent="1">
          <mxGeometry x="555" y="140" width="300" height="260" as="geometry" />
        </mxCell>
        <mxCell id="1xRq_wUFRSwS9prj0Ssz-2" value="Resbarrypi" style="rounded=0;whiteSpace=wrap;html=1;fillColor=#dae8fc;strokeColor=#6c8ebf;" vertex="1" parent="1">
          <mxGeometry x="560" y="400" width="290" height="160" as="geometry" />
        </mxCell>
        <mxCell id="1xRq_wUFRSwS9prj0Ssz-1" value="" style="rounded=1;whiteSpace=wrap;html=1;fillColor=#d5e8d4;strokeColor=#82b366;fillStyle=zigzag-line;" vertex="1" parent="1">
          <mxGeometry x="540" y="110" width="330" height="480" as="geometry" />
        </mxCell>
        <mxCell id="1xRq_wUFRSwS9prj0Ssz-3" value="מסך" style="rounded=0;whiteSpace=wrap;html=1;" vertex="1" parent="1">
          <mxGeometry x="570" y="150" width="270" height="150" as="geometry" />
        </mxCell>
        <mxCell id="1xRq_wUFRSwS9prj0Ssz-4" value="" style="ellipse;whiteSpace=wrap;html=1;" vertex="1" parent="1">
          <mxGeometry x="770" y="430" width="40" height="40" as="geometry" />
        </mxCell>
        <mxCell id="1xRq_wUFRSwS9prj0Ssz-5" value="" style="ellipse;whiteSpace=wrap;html=1;" vertex="1" parent="1">
          <mxGeometry x="800" y="490" width="40" height="40" as="geometry" />
        </mxCell>
        <mxCell id="1xRq_wUFRSwS9prj0Ssz-6" value="מקשי חצים" style="rounded=1;whiteSpace=wrap;html=1;" vertex="1" parent="1">
          <mxGeometry x="590" y="450" width="120" height="60" as="geometry" />
        </mxCell>
        <mxCell id="1xRq_wUFRSwS9prj0Ssz-7" value="חיבור&amp;nbsp;&lt;span style=&quot;background-color: initial;&quot;&gt;USB&lt;/span&gt;" style="rounded=1;whiteSpace=wrap;html=1;" vertex="1" parent="1">
          <mxGeometry x="650" y="560" width="120" height="20" as="geometry" />
        </mxCell>
        <mxCell id="1xRq_wUFRSwS9prj0Ssz-9" value="" style="rounded=0;whiteSpace=wrap;html=1;" vertex="1" parent="1">
          <mxGeometry x="40" y="130" width="460" height="400" as="geometry" />
        </mxCell>
        <mxCell id="1xRq_wUFRSwS9prj0Ssz-10" value="Main Menu" style="text;html=1;align=center;verticalAlign=middle;whiteSpace=wrap;rounded=0;fillColor=#ffe6cc;strokeColor=#d79b00;" vertex="1" parent="1">
          <mxGeometry x="240" y="100" width="60" height="30" as="geometry" />
        </mxCell>
        <mxCell id="1xRq_wUFRSwS9prj0Ssz-13" value="" style="edgeStyle=orthogonalEdgeStyle;rounded=0;orthogonalLoop=1;jettySize=auto;html=1;" edge="1" parent="1" source="1xRq_wUFRSwS9prj0Ssz-11" target="1xRq_wUFRSwS9prj0Ssz-12">
          <mxGeometry relative="1" as="geometry" />
        </mxCell>
        <mxCell id="1xRq_wUFRSwS9prj0Ssz-11" value="start" style="rounded=1;whiteSpace=wrap;html=1;" vertex="1" parent="1">
          <mxGeometry x="50" y="10" width="120" height="60" as="geometry" />
        </mxCell>
        <mxCell id="1xRq_wUFRSwS9prj0Ssz-12" value="splashscreen" style="whiteSpace=wrap;html=1;rounded=1;" vertex="1" parent="1">
          <mxGeometry x="250" y="10" width="120" height="60" as="geometry" />
        </mxCell>
        <mxCell id="1xRq_wUFRSwS9prj0Ssz-14" style="edgeStyle=orthogonalEdgeStyle;rounded=0;orthogonalLoop=1;jettySize=auto;html=1;entryX=0.589;entryY=0.003;entryDx=0;entryDy=0;entryPerimeter=0;" edge="1" parent="1" source="1xRq_wUFRSwS9prj0Ssz-12" target="1xRq_wUFRSwS9prj0Ssz-9">
          <mxGeometry relative="1" as="geometry" />
        </mxCell>
        <mxCell id="1xRq_wUFRSwS9prj0Ssz-18" value="" style="rounded=1;whiteSpace=wrap;html=1;fillColor=#fff2cc;strokeColor=#d6b656;" vertex="1" parent="1">
          <mxGeometry x="300" y="190" width="140" height="250" as="geometry" />
        </mxCell>
        <mxCell id="1xRq_wUFRSwS9prj0Ssz-15" value="" style="rounded=1;whiteSpace=wrap;html=1;fillColor=#e1d5e7;strokeColor=#9673a6;" vertex="1" parent="1">
          <mxGeometry x="230" y="180" width="140" height="250" as="geometry" />
        </mxCell>
        <mxCell id="1xRq_wUFRSwS9prj0Ssz-16" value="" style="rounded=0;whiteSpace=wrap;html=1;fillColor=#dae8fc;strokeColor=#6c8ebf;" vertex="1" parent="1">
          <mxGeometry x="130" y="170" width="160" height="250" as="geometry" />
        </mxCell>
        <mxCell id="1xRq_wUFRSwS9prj0Ssz-17" value="" style="rounded=1;whiteSpace=wrap;html=1;fillColor=#ffe6cc;strokeColor=#d79b00;" vertex="1" parent="1">
          <mxGeometry x="70" y="160" width="150" height="250" as="geometry" />
        </mxCell>
      </root>
    </mxGraphModel>
  </diagram>
</mxfile>
